<?xml version="1.0" encoding="utf-8"?>
<!-- Generator: Adobe Illustrator 28.0.0, SVG Export Plug-In . SVG Version: 6.00 Build 0)  -->
<svg version="1.1" id="Layer_1" xmlns="http://www.w3.org/2000/svg" xmlns:xlink="http://www.w3.org/1999/xlink" x="0px" y="0px"
	 viewBox="0 0 145 134" style="enable-background:new 0 0 145 134;" xml:space="preserve">
<style type="text/css">
	.st0{fill:#0D9948;}
	.st1{fill:#F5EA14;}
	.st2{fill:#35459B;}
</style>
<g>
	<g>
		<path class="st0" d="M17.6,98.85L7.02,117.18c-2.39,4.15,0.6,9.33,5.39,9.33h21.16c4.79,0,7.78-5.18,5.39-9.33L28.38,98.85
			C25.98,94.71,20,94.71,17.6,98.85z"/>
		<path class="st0" d="M66.47,98.85l-10.58,18.33c-2.39,4.15,0.6,9.33,5.39,9.33h21.16c4.79,0,7.78-5.18,5.39-9.33L77.24,98.85
			C74.85,94.71,68.86,94.71,66.47,98.85z"/>
		<path class="st0" d="M115.34,98.85l-10.58,18.33c-2.39,4.15,0.6,9.33,5.39,9.33h21.16c4.79,0,7.78-5.18,5.39-9.33l-10.58-18.33
			C123.72,94.71,117.73,94.71,115.34,98.85z"/>
	</g>
	<g>
		<path class="st1" d="M101.2,83.08l10.58-18.33c2.39-4.15-0.6-9.33-5.39-9.33H85.23c-4.79,0-7.78,5.18-5.39,9.33l10.58,18.33
			C92.82,87.22,98.81,87.22,101.2,83.08z"/>
		<path class="st1" d="M52.33,83.08l10.58-18.33c2.39-4.15-0.6-9.33-5.39-9.33H36.37c-4.79,0-7.78,5.18-5.39,9.33l10.58,18.33
			C43.96,87.22,49.94,87.22,52.33,83.08z"/>
	</g>
	<path class="st2" d="M66,9.46L55.41,27.79c-2.39,4.15,0.6,9.33,5.39,9.33h21.16c4.79,0,7.78-5.18,5.39-9.33L76.77,9.46
		C74.37,5.32,68.39,5.32,66,9.46z"/>
</g>
</svg>
