<?xml version="1.0" encoding="utf-8"?>
<!-- Generator: Adobe Illustrator 28.0.0, SVG Export Plug-In . SVG Version: 6.00 Build 0)  -->
<svg version="1.1" id="Layer_1" xmlns="http://www.w3.org/2000/svg" xmlns:xlink="http://www.w3.org/1999/xlink" x="0px" y="0px"
	 viewBox="0 0 589 160" style="enable-background:new 0 0 589 160;" xml:space="preserve">
<style type="text/css">
	.st0{fill:#35459B;}
	.st1{fill:#0D9948;}
	.st2{fill:#F5EA14;}
</style>
<path class="st0" d="M53.72,142.22V39.28H15.85V17.07h101.76v22.21H79.85v102.94H53.72z"/>
<path class="st0" d="M368.36,97.75c-1.48,13.71-6.84,24.6-16.08,32.66c-9.24,8.06-20.96,12.09-35.16,12.09
	c-16.68,0-29.93-5.56-39.75-16.68c-9.82-11.12-14.73-26.16-14.73-45.13c0-19.4,4.91-34.78,14.73-46.15
	c9.82-11.37,23.07-17.05,39.75-17.05c14.02,0,25.67,3.82,34.93,11.44c9.27,7.63,14.7,17.93,16.31,30.9h-24.83
	c-0.8-6.36-3.55-11.43-8.25-15.2c-4.7-3.77-10.69-5.65-17.98-5.65c-9.21,0-16.4,3.66-21.59,10.98c-5.19,7.32-7.78,17.5-7.78,30.53
	c0,12.66,2.59,22.58,7.78,29.74c5.19,7.17,12.38,10.75,21.59,10.75c7.29,0,13.28-2.09,17.98-6.26c4.69-4.17,7.44-9.84,8.25-17
	H368.36z"/>
<path class="st0" d="M389.13,142.22V17.07h26.13v125.15H389.13z"/>
<path class="st0" d="M466.72,142.22V39.28h-37.87V17.07h101.76v22.21h-37.77v102.94H466.72z"/>
<path class="st0" d="M544.02,142.22V17.07h26.13v125.15H544.02z"/>
<g>
	<g>
		<path class="st1" d="M127.6,114.85l-10.58,18.33c-2.39,4.15,0.6,9.33,5.39,9.33h21.16c4.79,0,7.78-5.18,5.39-9.33l-10.58-18.33
			C135.98,110.71,130,110.71,127.6,114.85z"/>
		<path class="st1" d="M176.47,114.85l-10.58,18.33c-2.39,4.15,0.6,9.33,5.39,9.33h21.16c4.79,0,7.78-5.18,5.39-9.33l-10.58-18.33
			C184.85,110.71,178.86,110.71,176.47,114.85z"/>
		<path class="st1" d="M225.34,114.85l-10.58,18.33c-2.39,4.15,0.6,9.33,5.39,9.33h21.16c4.79,0,7.78-5.18,5.39-9.33l-10.58-18.33
			C233.72,110.71,227.73,110.71,225.34,114.85z"/>
	</g>
	<g>
		<path class="st2" d="M211.2,99.08l10.58-18.33c2.39-4.15-0.6-9.33-5.39-9.33h-21.16c-4.79,0-7.78,5.18-5.39,9.33l10.58,18.33
			C202.82,103.22,208.81,103.22,211.2,99.08z"/>
		<path class="st2" d="M162.33,99.08l10.58-18.33c2.39-4.15-0.6-9.33-5.39-9.33h-21.16c-4.79,0-7.78,5.18-5.39,9.33l10.58,18.33
			C153.96,103.22,159.94,103.22,162.33,99.08z"/>
	</g>
	<path class="st0" d="M176,25.46l-10.58,18.33c-2.39,4.15,0.6,9.33,5.39,9.33h21.16c4.79,0,7.78-5.18,5.39-9.33l-10.58-18.33
		C184.37,21.32,178.39,21.32,176,25.46z"/>
</g>
</svg>
